# xmcd CD database file
#
# Track frame offsets:
#	150
#	17057
#	34290
#	51507
#	80190
#	100800
#	117955
#	135445
#	151527
#	175027
#	197010
#	213350
#
# Disc length: 3010 seconds
#
# Revision: 1
# Processed by: cddbd v1.5.2PL0 Copyright (c) Steve Scherf et al.
# Submitted via: CDex 1.70beta2
#
DISCID=9b0bc00c
DTITLE=Himlaväsen - Open House
DYEAR=1992
DGENRE=Christian
TTITLE0=Dutch Ticket
TTITLE1=Hit It!
TTITLE2=Ain´t No Stoppin´ Now
TTITLE3=Beyond Our Dreams
TTITLE4=One and Ninetynine
TTITLE5=Time Will Tell
TTITLE6=Open House
TTITLE7=Take Me To The River
TTITLE8=Goodbye Bachelor
TTITLE9=Friday Night Shuffle
TTITLE10=Longing
TTITLE11=Stand By Your Man
EXTD=YEAR: 1992
EXTT0=
EXTT1=
EXTT2=
EXTT3=
EXTT4=
EXTT5=
EXTT6=
EXTT7=
EXTT8=
EXTT9=
EXTT10=
EXTT11=
PLAYORDER=
